<svg width="1155" height="1107" viewBox="0 0 1155 1107" fill="none" xmlns="http://www.w3.org/2000/svg">
<rect width="1155" height="1107" fill="#FFC319"/>
<path d="M347.625 153.343C341.474 156.925 330.505 169.701 297.087 212.447C277.097 237.879 269.921 247.192 265.308 253.64C262.848 256.864 258.542 262.834 255.672 266.655C245.421 280.147 239.27 288.266 235.067 293.759C216.615 317.639 216.103 318.475 216 323.132C216 324.564 217.333 327.311 219.075 329.221C221.638 332.206 223.176 332.922 229.019 333.639C232.914 333.997 263.975 334.116 298.009 333.758C364.642 333.042 481.095 334.833 485.195 336.624C488.885 338.295 490.423 343.071 488.783 347.728C488.065 349.877 486.938 353.937 486.118 356.922C484.17 364.922 481.402 376.146 480.479 380.205C479.967 382.116 478.634 386.772 477.404 390.354C472.689 404.563 472.074 406.712 471.048 411.846C470.536 414.832 469.613 417.697 469.101 418.294C468.588 419.011 468.178 420.563 468.178 421.996C468.178 423.428 467.461 425.578 466.64 426.891C465.82 428.085 465.103 429.876 465.103 430.712C465.103 431.667 464.488 434.055 463.77 436.085C461.925 441.1 459.362 450.771 458.44 455.667C458.029 457.816 457.312 459.846 456.799 460.204C456.287 460.682 455.877 462.114 455.877 463.667C455.877 465.099 455.159 467.368 454.339 468.681C453.519 469.875 452.801 471.666 452.801 472.502C452.801 473.457 452.186 475.845 451.366 477.875C450.649 480.024 449.008 485.398 447.881 490.054C446.753 494.591 444.805 501.397 443.575 504.979C438.86 519.427 438.245 521.218 437.322 525.874C436.297 530.77 435.272 533.994 432.709 539.964C431.889 541.874 431.274 544.143 431.274 544.979C431.274 545.934 430.659 548.441 429.839 550.591C429.019 552.74 427.584 557.755 426.661 561.695C425.636 565.635 424.303 570.411 423.586 572.441C420.715 580.441 418.973 585.933 416.922 593.933C415.692 598.47 414.257 603.246 413.745 604.321C413.232 605.515 412.822 607.187 412.822 608.261C412.822 609.216 412.104 611.963 411.182 614.47C407.594 624.38 406.876 626.41 405.134 633.335C402.776 643.007 400.931 648.499 396.113 661.514C395.19 664.021 394.165 667.842 393.857 670.23C393.447 672.618 392.73 674.887 392.217 675.245C391.705 675.603 391.295 677.394 391.295 679.185C391.295 681.096 390.577 683.245 389.757 684.081C388.937 684.917 388.219 686.708 388.219 688.141C388.117 689.454 387.502 691.961 386.682 693.633C384.529 698.051 384.836 701.394 387.912 705.573C390.372 709.155 390.987 709.274 395.805 708.797C405.134 707.722 418.05 703.782 424.303 700.081C425.738 699.125 427.891 698.409 429.019 698.409C430.249 698.409 431.376 697.931 431.684 697.334C431.992 696.737 434.042 695.902 436.092 695.424C441.115 694.469 449.521 691.364 453.006 689.335C454.442 688.379 456.389 687.663 457.209 687.663C458.132 687.663 460.08 686.946 461.72 685.991C463.258 685.036 467.358 683.364 470.741 682.29C474.124 681.215 478.122 679.782 479.557 679.066C481.607 678.23 483.042 678.35 485.4 679.782C488.168 681.454 488.373 682.051 487.655 684.917C487.143 686.827 486.015 691.484 485.092 695.424C484.067 699.364 482.632 704.976 481.915 707.842C481.095 710.827 480.479 714.051 480.479 715.006C480.479 716.08 479.762 718.468 478.942 720.379C478.122 722.17 477.404 724.558 477.404 725.513C477.404 726.468 476.789 728.737 475.969 730.408C474.226 734.468 471.561 744.259 470.741 750.11C470.331 752.498 469.613 754.886 469.101 755.244C468.588 755.602 468.178 757.393 468.178 759.184C468.178 760.975 467.461 763.483 466.64 764.796C465.82 765.99 465.103 768.02 465.103 769.214C465.103 770.527 464.488 772.915 463.668 774.587C462.848 776.378 461.412 781.273 460.49 785.572C459.567 789.87 458.132 795.482 457.312 798.109C456.492 800.855 455.877 803.84 455.877 804.915C455.877 805.989 455.262 807.661 454.544 808.497C453.826 809.333 452.699 812.437 451.981 815.422C451.264 818.407 449.931 823.78 449.111 827.362C448.188 830.944 447.061 835.481 446.651 837.511C446.138 839.422 444.805 844.078 443.575 847.66C441.218 854.586 439.065 862.585 437.117 871.779C436.4 874.764 435.579 877.749 435.067 878.227C434.657 878.705 434.349 880.257 434.349 881.69C434.349 883.122 433.632 885.272 432.812 886.585C431.992 887.779 431.274 889.809 431.274 891.003C431.274 892.316 430.659 894.943 429.839 896.973C429.019 899.122 428.199 902.107 427.891 903.779C426.763 910.585 423.791 922.405 422.971 923.48C422.458 924.077 422.048 925.629 422.048 927.062C422.048 928.375 421.433 930.525 420.613 931.838C419.895 933.151 418.87 937.092 418.46 940.554C417.742 946.883 417.742 946.883 422.15 951.659C426.866 956.793 428.301 957.27 430.249 954.524C430.966 953.569 431.992 952.733 432.504 952.733C433.734 952.733 439.987 945.092 446.651 935.42C449.726 930.883 453.724 925.271 455.364 923.002C457.107 920.614 460.08 916.316 462.027 913.331C463.975 910.346 466.845 906.406 468.383 904.495C469.921 902.585 471.458 899.958 471.869 898.764C472.176 897.57 472.894 896.615 473.406 896.615C473.919 896.615 474.329 895.779 474.329 894.824C474.329 893.988 474.944 892.675 475.661 892.197C476.994 891.242 486.733 877.033 493.806 865.69C495.754 862.466 499.342 856.974 501.802 853.511C507.645 844.914 507.03 845.75 513.181 836.317C516.256 831.661 519.024 827.72 519.331 827.362C519.741 827.004 522.509 822.944 525.482 818.407C528.557 813.75 531.325 809.81 531.633 809.452C532.043 809.094 534.811 805.154 537.783 800.616C540.654 796.198 543.832 791.661 544.652 790.587C545.574 789.631 548.137 785.811 550.392 782.109C552.75 778.408 555.415 774.587 556.338 773.632C557.261 772.676 560.028 768.856 562.386 765.274C564.744 761.692 568.742 755.721 571.202 752.139C573.765 748.557 578.583 741.513 581.966 736.617C585.349 731.722 591.807 722.289 596.215 715.722C600.725 709.155 607.799 698.648 611.899 692.439C616 686.23 620.1 680.26 620.92 679.185C622.868 676.917 630.146 666.171 641.73 648.38C646.753 640.738 651.776 633.216 653.006 631.664C654.236 629.992 656.697 626.41 658.337 623.664C663.36 615.664 671.356 603.605 672.688 602.291C673.303 601.575 676.276 597.276 679.249 592.739C682.324 588.082 685.092 584.142 685.4 583.784C685.81 583.426 688.988 578.889 692.473 573.635C709.285 548.322 716.563 537.456 719.536 533.277C721.279 530.889 723.842 527.068 725.072 524.919C726.404 522.889 727.84 520.501 728.352 519.904C732.863 513.457 744.959 493.994 746.292 491.009C748.752 485.517 748.444 480.86 745.369 476.92C743.011 473.935 742.294 473.696 738.501 474.532C736.143 475.01 732.555 475.607 730.607 475.965C728.66 476.204 725.584 477.278 723.739 478.233C721.996 479.189 719.434 479.905 718.101 479.905C716.768 479.905 715.231 480.383 714.616 481.099C714.103 481.696 711.54 482.771 709.08 483.487C697.496 486.353 690.73 488.263 686.015 489.935C683.247 491.009 678.839 492.442 676.276 493.159C673.713 493.875 670.741 494.95 669.613 495.547C666.435 496.979 650.956 501.397 648.701 501.397C647.676 501.397 645.42 502.233 643.883 503.188C642.242 504.143 640.09 504.979 639.167 504.979C638.142 504.979 635.887 505.696 634.042 506.651C632.196 507.606 627.173 509.278 622.97 510.352C618.767 511.427 613.847 513.099 612.002 514.054C610.259 515.009 607.799 515.725 606.671 515.725C605.441 515.725 603.288 516.561 601.955 517.636C600.52 518.71 598.573 519.188 597.342 518.71C595.087 517.875 594.677 516.322 596.317 515.128C596.932 514.77 597.342 513.218 597.342 511.666C597.342 510.233 598.06 507.964 598.88 506.651C599.7 505.457 600.418 503.427 600.418 502.233C600.418 500.92 601.033 498.532 601.853 496.86C602.673 495.069 604.313 489.338 605.543 484.084C606.774 478.83 608.209 474.054 608.721 473.457C609.234 472.741 609.644 471.069 609.644 469.637C609.644 468.204 610.361 466.413 611.182 465.577C612.002 464.741 612.719 463.07 612.719 461.876C612.719 460.682 613.334 457.935 614.154 455.786C614.872 453.637 616.307 448.622 617.332 444.682C618.972 437.757 619.69 435.607 623.38 425.816C624.303 423.309 625.021 420.563 625.021 419.608C625.021 418.652 625.636 416.145 626.456 413.996C627.173 411.846 628.711 406.832 629.736 402.891C630.761 398.951 631.889 395.13 632.299 394.533C633.119 393.101 635.169 386.772 638.962 373.28C640.397 368.265 642.037 363.728 642.55 363.37C643.063 363.011 643.473 361.937 643.473 360.862C643.473 359.907 644.19 357.161 645.113 354.773C650.136 340.922 652.904 337.579 660.387 335.43C664.077 334.475 687.553 333.878 741.781 333.4C805.133 332.922 818.357 332.445 819.587 331.131C820.305 330.176 821.535 329.46 822.15 329.46C823.995 329.34 830.043 322.415 835.374 314.415C837.937 310.475 841.115 306.057 842.345 304.386C843.575 302.714 845.83 299.251 847.163 296.624C848.598 293.998 850.238 291.251 850.956 290.654C851.571 289.938 853.929 286.356 856.081 282.535C858.337 278.714 861.514 273.938 863.155 271.789C864.795 269.759 867.255 266.058 868.485 263.789C869.818 261.521 872.996 256.983 875.558 253.64C878.121 250.416 880.274 247.073 880.274 246.237C880.274 245.401 880.889 244.327 881.607 243.849C882.324 243.372 885.195 239.431 887.962 235.133C890.628 230.835 893.395 226.775 894.011 226.178C894.728 225.461 897.496 221.521 900.161 217.223C902.929 212.924 905.697 208.865 906.312 208.268C907.029 207.551 909.797 203.611 912.463 199.313C915.23 195.014 917.998 190.955 918.613 190.358C919.331 189.641 922.099 185.701 924.764 181.402C927.532 177.104 930.3 173.044 930.915 172.447C933.272 170.059 938.706 159.791 938.706 157.642C938.706 156.567 937.27 154.298 935.425 152.746L932.145 150L854.236 151.075C757.978 152.388 559.823 152.507 441.525 151.194L352.853 150.239L347.625 153.343Z" fill="black"/>
</svg>
